<?xml version="1.0" encoding="UTF-8" standalone="no"?>
<!DOCTYPE svg PUBLIC "-//W3C//DTD SVG 1.1//EN"
 "http://www.w3.org/Graphics/SVG/1.1/DTD/svg11.dtd">
<!-- Generated by graphviz version 2.38.0 (20140413.2041)
 -->
<!-- Title: workflow_space Pages: 1 -->
<svg width="854pt" height="697pt"
 viewBox="0.00 0.00 854.00 697.00" xmlns="http://www.w3.org/2000/svg" xmlns:xlink="http://www.w3.org/1999/xlink">
<g id="graph0" class="graph" transform="scale(1 1) rotate(0) translate(4 693)">
<title>workflow_space</title>
<polygon fill="white" stroke="none" points="-4,4 -4,-693 850,-693 850,4 -4,4"/>
<text text-anchor="middle" x="423" y="-7.8" font-family="Times,serif" font-size="14.00">WorkFlow Space</text>
<!-- data -->
<g id="node1" class="node"><title>data</title>
<ellipse fill="none" stroke="black" cx="190" cy="-671" rx="27" ry="18"/>
<text text-anchor="middle" x="190" y="-667.3" font-family="Times,serif" font-size="14.00">data</text>
</g>
<!-- num -->
<g id="node2" class="node"><title>num</title>
<ellipse fill="none" stroke="#0099cc" cx="175" cy="-128" rx="27" ry="18"/>
<text text-anchor="start" x="162.5" y="-124.3" font-family="Times,serif" font-size="14.00" fill="#0099cc">num</text>
</g>
<!-- data&#45;&gt;num -->
<g id="edge1" class="edge"><title>data&#45;&gt;num</title>
<path fill="none" stroke="black" d="M162.778,-669.824C110.241,-667.9 0,-655.466 0,-585 0,-585 0,-585 0,-214 0,-188.745 6.95511,-179.363 27,-164 58.9129,-139.541 105.23,-131.796 137.521,-129.535"/>
<polygon fill="black" stroke="black" points="138.102,-133.009 147.893,-128.963 137.716,-126.019 138.102,-133.009"/>
<text text-anchor="start" x="0" y="-407.3" font-family="Times,serif" font-size="14.00">data_manager: </text>
<text text-anchor="start" x="85" y="-407.3" font-family="Times,serif" font-size="14.00" fill="#0099cc">num</text>
</g>
<!-- cat -->
<g id="node3" class="node"><title>cat</title>
<ellipse fill="none" stroke="#0066cc" cx="196" cy="-302" rx="27" ry="18"/>
<text text-anchor="start" x="188" y="-298.3" font-family="Times,serif" font-size="14.00" fill="#0066cc">cat</text>
</g>
<!-- data&#45;&gt;cat -->
<g id="edge2" class="edge"><title>data&#45;&gt;cat</title>
<path fill="none" stroke="black" d="M182.723,-653.425C175.984,-636.548 167,-609.46 167,-585 167,-585 167,-585 167,-409 167,-380.963 176.556,-350.185 184.697,-329.053"/>
<polygon fill="black" stroke="black" points="188.052,-330.091 188.532,-319.507 181.556,-327.482 188.052,-330.091"/>
<text text-anchor="start" x="167" y="-494.3" font-family="Times,serif" font-size="14.00">data_manager: </text>
<text text-anchor="start" x="252" y="-494.3" font-family="Times,serif" font-size="14.00" fill="#0066cc">cat</text>
</g>
<!-- nan -->
<g id="node4" class="node"><title>nan</title>
<ellipse fill="none" stroke="#339933" cx="331" cy="-497" rx="27" ry="18"/>
<text text-anchor="start" x="321" y="-493.3" font-family="Times,serif" font-size="14.00" fill="#339933">nan</text>
</g>
<!-- data&#45;&gt;nan -->
<g id="edge3" class="edge"><title>data&#45;&gt;nan</title>
<path fill="none" stroke="black" d="M191.577,-652.843C194.377,-630.735 201.957,-592.052 222,-566 241.811,-540.25 274.367,-521.787 298.75,-510.656"/>
<polygon fill="black" stroke="black" points="300.225,-513.831 307.979,-506.611 297.415,-507.42 300.225,-513.831"/>
<text text-anchor="start" x="222" y="-581.3" font-family="Times,serif" font-size="14.00">data_manager: </text>
<text text-anchor="start" x="307" y="-581.3" font-family="Times,serif" font-size="14.00" fill="#339933">nan</text>
</g>
<!-- highR_nan -->
<g id="node5" class="node"><title>highR_nan</title>
<ellipse fill="none" stroke="#ffcc33" cx="385" cy="-584" rx="49.2915" ry="18"/>
<text text-anchor="start" x="355" y="-580.3" font-family="Times,serif" font-size="14.00" fill="#ffcc33">highR_nan</text>
</g>
<!-- data&#45;&gt;highR_nan -->
<g id="edge4" class="edge"><title>data&#45;&gt;highR_nan</title>
<path fill="none" stroke="black" d="M211.99,-660.415C244.264,-646.346 304.981,-619.88 345.213,-602.343"/>
<polygon fill="black" stroke="black" points="346.701,-605.513 354.469,-598.308 343.904,-599.096 346.701,-605.513"/>
<text text-anchor="start" x="300" y="-624.8" font-family="Times,serif" font-size="14.00">data_manager: </text>
<text text-anchor="start" x="385" y="-624.8" font-family="Times,serif" font-size="14.00" fill="#ffcc33">highR_nan</text>
</g>
<!-- target -->
<g id="node10" class="node"><title>target</title>
<ellipse fill="none" stroke="#000000" cx="175" cy="-41" rx="30.5947" ry="18"/>
<text text-anchor="start" x="159.5" y="-37.3" font-family="Times,serif" font-size="14.00" fill="#000000">target</text>
</g>
<!-- num&#45;&gt;target -->
<g id="edge14" class="edge"><title>num&#45;&gt;target</title>
<path fill="none" stroke="black" d="M175,-109.799C175,-98.1626 175,-82.5479 175,-69.2368"/>
<polygon fill="black" stroke="black" points="178.5,-69.1754 175,-59.1754 171.5,-69.1755 178.5,-69.1754"/>
<text text-anchor="start" x="175" y="-80.8" font-family="Times,serif" font-size="14.00" fill="#333366">lightgbm</text>
</g>
<!-- highR_cat -->
<g id="node8" class="node"><title>highR_cat</title>
<ellipse fill="none" stroke="#663399" cx="84" cy="-215" rx="46.5926" ry="18"/>
<text text-anchor="start" x="56" y="-211.3" font-family="Times,serif" font-size="14.00" fill="#663399">highR_cat</text>
</g>
<!-- cat&#45;&gt;highR_cat -->
<g id="edge10" class="edge"><title>cat&#45;&gt;highR_cat</title>
<path fill="none" stroke="black" d="M169.667,-297.595C148.466,-293.531 119.283,-284.751 101,-266 94.9022,-259.746 90.9886,-251.223 88.478,-242.985"/>
<polygon fill="black" stroke="black" points="91.8673,-242.111 86.0589,-233.25 85.0739,-243.799 91.8673,-242.111"/>
<text text-anchor="start" x="101" y="-255.8" font-family="Times,serif" font-size="14.00">operate.split.cat: </text>
<text text-anchor="start" x="195" y="-255.8" font-family="Times,serif" font-size="14.00" fill="#663399">highR_cat</text>
</g>
<!-- lowR_cat -->
<g id="node9" class="node"><title>lowR_cat</title>
<ellipse fill="none" stroke="#ff6600" cx="283" cy="-215" rx="44.393" ry="18"/>
<text text-anchor="start" x="257" y="-211.3" font-family="Times,serif" font-size="14.00" fill="#ff6600">lowR_cat</text>
</g>
<!-- cat&#45;&gt;lowR_cat -->
<g id="edge11" class="edge"><title>cat&#45;&gt;lowR_cat</title>
<path fill="none" stroke="black" d="M218.085,-291.401C230.066,-285.389 244.522,-276.743 255,-266 261.662,-259.169 267.263,-250.439 271.662,-242.191"/>
<polygon fill="black" stroke="black" points="274.807,-243.726 276.11,-233.211 268.535,-240.618 274.807,-243.726"/>
<text text-anchor="start" x="267" y="-255.8" font-family="Times,serif" font-size="14.00">operate.split.cat: </text>
<text text-anchor="start" x="361" y="-255.8" font-family="Times,serif" font-size="14.00" fill="#ff6600">lowR_cat</text>
</g>
<!-- cat_nan -->
<g id="node6" class="node"><title>cat_nan</title>
<ellipse fill="none" stroke="#33cc99" cx="248" cy="-410" rx="38.1938" ry="18"/>
<text text-anchor="start" x="226.5" y="-406.3" font-family="Times,serif" font-size="14.00" fill="#33cc99">cat_nan</text>
</g>
<!-- nan&#45;&gt;cat_nan -->
<g id="edge6" class="edge"><title>nan&#45;&gt;cat_nan</title>
<path fill="none" stroke="black" d="M316.92,-481.581C304.238,-468.593 285.372,-449.273 270.584,-434.128"/>
<polygon fill="black" stroke="black" points="272.767,-431.354 263.276,-426.644 267.759,-436.244 272.767,-431.354"/>
<text text-anchor="start" x="295" y="-450.8" font-family="Times,serif" font-size="14.00">operate.split.cat_num: </text>
<text text-anchor="start" x="421" y="-450.8" font-family="Times,serif" font-size="14.00" fill="#33cc99">cat_nan</text>
</g>
<!-- num_nan -->
<g id="node7" class="node"><title>num_nan</title>
<ellipse fill="none" stroke="#ff0033" cx="605" cy="-356" rx="44.393" ry="18"/>
<text text-anchor="start" x="579" y="-352.3" font-family="Times,serif" font-size="14.00" fill="#ff0033">num_nan</text>
</g>
<!-- nan&#45;&gt;num_nan -->
<g id="edge7" class="edge"><title>nan&#45;&gt;num_nan</title>
<path fill="none" stroke="black" d="M357.316,-492.469C385.716,-487.943 431.743,-478.501 468,-461 511.868,-439.824 555.457,-403.408 581.31,-379.772"/>
<polygon fill="black" stroke="black" points="583.792,-382.243 588.745,-372.878 579.032,-377.111 583.792,-382.243"/>
<text text-anchor="start" x="495" y="-450.8" font-family="Times,serif" font-size="14.00">operate.split.cat_num: </text>
<text text-anchor="start" x="621" y="-450.8" font-family="Times,serif" font-size="14.00" fill="#ff0033">num_nan</text>
</g>
<!-- highR_nan&#45;&gt;nan -->
<g id="edge5" class="edge"><title>highR_nan&#45;&gt;nan</title>
<path fill="none" stroke="black" d="M374.331,-566.207C366.414,-553.745 355.496,-536.559 346.6,-522.556"/>
<polygon fill="black" stroke="black" points="349.415,-520.46 341.099,-513.896 343.507,-524.213 349.415,-520.46"/>
<text text-anchor="start" x="362" y="-537.8" font-family="Times,serif" font-size="14.00">{</text>
<text text-anchor="start" x="369" y="-537.8" font-family="Times,serif" font-size="14.00" fill="#663366">operate.drop</text>
<text text-anchor="start" x="438" y="-537.8" font-family="Times,serif" font-size="14.00">, </text>
<text text-anchor="start" x="446" y="-537.8" font-family="Times,serif" font-size="14.00" fill="#663300">operate.keep_going</text>
<text text-anchor="start" x="525" y="-537.8" font-family="Times,serif" font-size="14.00">}</text>
</g>
<!-- cat_nan&#45;&gt;cat -->
<g id="edge9" class="edge"><title>cat_nan&#45;&gt;cat</title>
<path fill="none" stroke="black" d="M239.645,-391.969C231.207,-374.769 218.075,-347.999 208.418,-328.314"/>
<polygon fill="black" stroke="black" points="211.539,-326.729 203.992,-319.292 205.254,-329.812 211.539,-326.729"/>
<text text-anchor="start" x="230" y="-353.3" font-family="Times,serif" font-size="14.00">{</text>
<text text-anchor="start" x="237" y="-353.3" font-family="Times,serif" font-size="14.00" fill="#660033">impute.fill_cat</text>
<text text-anchor="start" x="318" y="-353.3" font-family="Times,serif" font-size="14.00">, </text>
<text text-anchor="start" x="326" y="-353.3" font-family="Times,serif" font-size="14.00" fill="#333366">impute.fill_abnormal</text>
<text text-anchor="start" x="443" y="-353.3" font-family="Times,serif" font-size="14.00">}</text>
</g>
<!-- num_nan&#45;&gt;num -->
<g id="edge8" class="edge"><title>num_nan&#45;&gt;num</title>
<path fill="none" stroke="black" d="M609.238,-337.976C617.445,-300.475 630.767,-210.397 583,-164 556.703,-138.457 307.907,-131.353 212.234,-129.557"/>
<polygon fill="black" stroke="black" points="212.2,-126.056 202.139,-129.377 212.075,-133.055 212.2,-126.056"/>
<text text-anchor="start" x="617" y="-255.8" font-family="Times,serif" font-size="14.00">{</text>
<text text-anchor="start" x="624" y="-255.8" font-family="Times,serif" font-size="14.00" fill="#666633">impute.fill_num</text>
<text text-anchor="start" x="714" y="-255.8" font-family="Times,serif" font-size="14.00">, </text>
<text text-anchor="start" x="722" y="-255.8" font-family="Times,serif" font-size="14.00" fill="#333366">impute.fill_abnormal</text>
<text text-anchor="start" x="839" y="-255.8" font-family="Times,serif" font-size="14.00">}</text>
</g>
<!-- highR_cat&#45;&gt;num -->
<g id="edge12" class="edge"><title>highR_cat&#45;&gt;num</title>
<path fill="none" stroke="black" d="M55.6272,-200.637C39.1316,-191.027 23.4875,-177.441 34,-164 46.7474,-147.702 101.074,-137.918 138.445,-132.993"/>
<polygon fill="black" stroke="black" points="139.002,-136.451 148.488,-131.732 138.13,-129.505 139.002,-136.451"/>
<text text-anchor="start" x="34" y="-168.8" font-family="Times,serif" font-size="14.00">{</text>
<text text-anchor="start" x="41" y="-168.8" font-family="Times,serif" font-size="14.00" fill="#663366">operate.drop</text>
<text text-anchor="start" x="110" y="-168.8" font-family="Times,serif" font-size="14.00">, </text>
<text text-anchor="start" x="118" y="-168.8" font-family="Times,serif" font-size="14.00" fill="#663366">encode.label</text>
<text text-anchor="start" x="187" y="-168.8" font-family="Times,serif" font-size="14.00">, </text>
<text text-anchor="start" x="195" y="-168.8" font-family="Times,serif" font-size="14.00" fill="#663300">encode.cat_boost</text>
<text text-anchor="start" x="289" y="-168.8" font-family="Times,serif" font-size="14.00">}</text>
</g>
<!-- lowR_cat&#45;&gt;num -->
<g id="edge13" class="edge"><title>lowR_cat&#45;&gt;num</title>
<path fill="none" stroke="black" d="M293.964,-197.302C299.322,-186.856 303.222,-173.607 296,-164 276.833,-138.503 240.225,-130.699 212.273,-128.703"/>
<polygon fill="black" stroke="black" points="212.2,-125.195 202.039,-128.197 211.854,-132.186 212.2,-125.195"/>
<text text-anchor="start" x="300" y="-168.8" font-family="Times,serif" font-size="14.00">{</text>
<text text-anchor="start" x="307" y="-168.8" font-family="Times,serif" font-size="14.00" fill="#666633">encode.one_hot</text>
<text text-anchor="start" x="393" y="-168.8" font-family="Times,serif" font-size="14.00">, </text>
<text text-anchor="start" x="401" y="-168.8" font-family="Times,serif" font-size="14.00" fill="#663366">encode.label</text>
<text text-anchor="start" x="470" y="-168.8" font-family="Times,serif" font-size="14.00">, </text>
<text text-anchor="start" x="478" y="-168.8" font-family="Times,serif" font-size="14.00" fill="#663300">encode.cat_boost</text>
<text text-anchor="start" x="572" y="-168.8" font-family="Times,serif" font-size="14.00">}</text>
</g>
</g>
</svg>
